<?xml version="1.0" encoding="utf-8"?>
<!-- Generator: Adobe Illustrator 21.0.0, SVG Export Plug-In . SVG Version: 6.00 Build 0)  -->
<svg version="1.1" id="Layer_1" xmlns="http://www.w3.org/2000/svg" xmlns:xlink="http://www.w3.org/1999/xlink" x="0px" y="0px"
	 viewBox="0 0 1024 1024" style="enable-background:new 0 0 1024 1024;" xml:space="preserve">
<style type="text/css">
	.st0{fill:url(#SVGID_1_);}
	.st1{fill:#FFFFFF;}
</style>
<g>
	
		<linearGradient id="SVGID_1_" gradientUnits="userSpaceOnUse" x1="512" y1="-9.094947e-13" x2="512" y2="1024" gradientTransform="matrix(1 0 0 -1 0 1024)">
		<stop  offset="0" style="stop-color:#6EB6FF"/>
		<stop  offset="1" style="stop-color:#7098DA"/>
	</linearGradient>
	<path class="st0" d="M825.3,1024H198.7C88.9,1024,0,935.1,0,825.3V198.7C0,88.9,88.9,0,198.7,0h626.7C935.1,0,1024,88.9,1024,198.7
		v626.7C1024,935.1,935.1,1024,825.3,1024z"/>
</g>
<g>
	<g>
		<path class="st1" d="M330.8,701v-514c0-47.7,38.8-86.5,86.5-86.5h342.5c47.7,0,86.5,38.8,86.5,86.5v514
			c0,47.7-38.8,86.5-86.5,86.5H417.3C369.3,787.5,330.8,748.6,330.8,701z"/>
	</g>
</g>
<g>
	<g>
		<path class="st1" d="M170.9,828.8v-514c0-47.7,38.8-86.5,86.5-86.5h342.5c47.7,0,86.5,38.8,86.5,86.5v514
			c0,47.7-38.8,86.5-86.5,86.5H257.4C209.8,915.3,170.9,876.5,170.9,828.8z"/>
	</g>
</g>
</svg>
